<mxfile host="app.diagrams.net" modified="2023-06-19T17:47:53.844Z" agent="Mozilla/5.0 (Windows NT 10.0; Win64; x64) AppleWebKit/537.36 (KHTML, like Gecko) Chrome/114.0.0.0 Safari/537.36" etag="cSZDtzKEp5MfE4bCRUjz" version="21.3.7" type="github">
  <diagram name="Page-1" id="6D1xcQn8DSVmfzfRILAE">
    <mxGraphModel dx="2140" dy="585" grid="1" gridSize="10" guides="1" tooltips="1" connect="1" arrows="1" fold="1" page="1" pageScale="1" pageWidth="850" pageHeight="1100" math="0" shadow="0">
      <root>
        <mxCell id="0" />
        <mxCell id="1" parent="0" />
        <mxCell id="ZaUChQeZ-4_Qdy9LT5QD-53" style="edgeStyle=orthogonalEdgeStyle;rounded=0;orthogonalLoop=1;jettySize=auto;html=1;exitX=0.5;exitY=0;exitDx=0;exitDy=0;startArrow=classic;startFill=1;endArrow=none;endFill=0;" parent="1" source="ZaUChQeZ-4_Qdy9LT5QD-13" target="ZaUChQeZ-4_Qdy9LT5QD-32" edge="1">
          <mxGeometry relative="1" as="geometry" />
        </mxCell>
        <mxCell id="ZaUChQeZ-4_Qdy9LT5QD-13" value="Personne" style="swimlane;fontStyle=0;childLayout=stackLayout;horizontal=1;startSize=26;fillColor=none;horizontalStack=0;resizeParent=1;resizeParentMax=0;resizeLast=0;collapsible=1;marginBottom=0;html=1;" parent="1" vertex="1">
          <mxGeometry x="330" y="160" width="140" height="104" as="geometry" />
        </mxCell>
        <mxCell id="ZaUChQeZ-4_Qdy9LT5QD-14" value="#Nom" style="text;strokeColor=none;fillColor=none;align=left;verticalAlign=top;spacingLeft=4;spacingRight=4;overflow=hidden;rotatable=0;points=[[0,0.5],[1,0.5]];portConstraint=eastwest;whiteSpace=wrap;html=1;" parent="ZaUChQeZ-4_Qdy9LT5QD-13" vertex="1">
          <mxGeometry y="26" width="140" height="26" as="geometry" />
        </mxCell>
        <mxCell id="ZaUChQeZ-4_Qdy9LT5QD-15" value="#Prenom" style="text;strokeColor=none;fillColor=none;align=left;verticalAlign=top;spacingLeft=4;spacingRight=4;overflow=hidden;rotatable=0;points=[[0,0.5],[1,0.5]];portConstraint=eastwest;whiteSpace=wrap;html=1;" parent="ZaUChQeZ-4_Qdy9LT5QD-13" vertex="1">
          <mxGeometry y="52" width="140" height="26" as="geometry" />
        </mxCell>
        <mxCell id="ZaUChQeZ-4_Qdy9LT5QD-16" value="-ID" style="text;strokeColor=none;fillColor=none;align=left;verticalAlign=top;spacingLeft=4;spacingRight=4;overflow=hidden;rotatable=0;points=[[0,0.5],[1,0.5]];portConstraint=eastwest;whiteSpace=wrap;html=1;" parent="ZaUChQeZ-4_Qdy9LT5QD-13" vertex="1">
          <mxGeometry y="78" width="140" height="26" as="geometry" />
        </mxCell>
        <mxCell id="ZaUChQeZ-4_Qdy9LT5QD-52" style="edgeStyle=orthogonalEdgeStyle;rounded=0;orthogonalLoop=1;jettySize=auto;html=1;exitX=0.5;exitY=0;exitDx=0;exitDy=0;endArrow=block;endFill=0;" parent="1" source="ZaUChQeZ-4_Qdy9LT5QD-19" edge="1">
          <mxGeometry relative="1" as="geometry">
            <mxPoint x="400" y="260" as="targetPoint" />
          </mxGeometry>
        </mxCell>
        <mxCell id="ZaUChQeZ-4_Qdy9LT5QD-19" value="Directeur" style="swimlane;fontStyle=0;childLayout=stackLayout;horizontal=1;startSize=26;fillColor=none;horizontalStack=0;resizeParent=1;resizeParentMax=0;resizeLast=0;collapsible=1;marginBottom=0;html=1;" parent="1" vertex="1">
          <mxGeometry x="560" y="372" width="140" height="52" as="geometry" />
        </mxCell>
        <mxCell id="ZaUChQeZ-4_Qdy9LT5QD-20" value="#Taches" style="text;strokeColor=none;fillColor=none;align=left;verticalAlign=top;spacingLeft=4;spacingRight=4;overflow=hidden;rotatable=0;points=[[0,0.5],[1,0.5]];portConstraint=eastwest;whiteSpace=wrap;html=1;" parent="ZaUChQeZ-4_Qdy9LT5QD-19" vertex="1">
          <mxGeometry y="26" width="140" height="26" as="geometry" />
        </mxCell>
        <mxCell id="ZaUChQeZ-4_Qdy9LT5QD-50" style="edgeStyle=orthogonalEdgeStyle;rounded=0;orthogonalLoop=1;jettySize=auto;html=1;exitX=0.75;exitY=0;exitDx=0;exitDy=0;endArrow=block;endFill=0;" parent="1" source="ZaUChQeZ-4_Qdy9LT5QD-23" edge="1">
          <mxGeometry relative="1" as="geometry">
            <mxPoint x="400" y="260" as="targetPoint" />
          </mxGeometry>
        </mxCell>
        <mxCell id="ZaUChQeZ-4_Qdy9LT5QD-23" value="Stagiaire" style="swimlane;fontStyle=0;childLayout=stackLayout;horizontal=1;startSize=26;fillColor=none;horizontalStack=0;resizeParent=1;resizeParentMax=0;resizeLast=0;collapsible=1;marginBottom=0;html=1;" parent="1" vertex="1">
          <mxGeometry x="110" y="320" width="140" height="52" as="geometry" />
        </mxCell>
        <mxCell id="ZaUChQeZ-4_Qdy9LT5QD-24" value="#Filière" style="text;strokeColor=none;fillColor=none;align=left;verticalAlign=top;spacingLeft=4;spacingRight=4;overflow=hidden;rotatable=0;points=[[0,0.5],[1,0.5]];portConstraint=eastwest;whiteSpace=wrap;html=1;" parent="ZaUChQeZ-4_Qdy9LT5QD-23" vertex="1">
          <mxGeometry y="26" width="140" height="26" as="geometry" />
        </mxCell>
        <mxCell id="ZaUChQeZ-4_Qdy9LT5QD-51" style="edgeStyle=orthogonalEdgeStyle;rounded=0;orthogonalLoop=1;jettySize=auto;html=1;exitX=0.5;exitY=0;exitDx=0;exitDy=0;endArrow=block;endFill=0;" parent="1" source="ZaUChQeZ-4_Qdy9LT5QD-27" edge="1">
          <mxGeometry relative="1" as="geometry">
            <mxPoint x="400" y="260" as="targetPoint" />
          </mxGeometry>
        </mxCell>
        <mxCell id="ZaUChQeZ-4_Qdy9LT5QD-27" value="Employe" style="swimlane;fontStyle=0;childLayout=stackLayout;horizontal=1;startSize=26;fillColor=none;horizontalStack=0;resizeParent=1;resizeParentMax=0;resizeLast=0;collapsible=1;marginBottom=0;html=1;" parent="1" vertex="1">
          <mxGeometry x="330" y="340" width="140" height="52" as="geometry" />
        </mxCell>
        <mxCell id="ZaUChQeZ-4_Qdy9LT5QD-28" value="#Specialite" style="text;strokeColor=none;fillColor=none;align=left;verticalAlign=top;spacingLeft=4;spacingRight=4;overflow=hidden;rotatable=0;points=[[0,0.5],[1,0.5]];portConstraint=eastwest;whiteSpace=wrap;html=1;" parent="ZaUChQeZ-4_Qdy9LT5QD-27" vertex="1">
          <mxGeometry y="26" width="140" height="26" as="geometry" />
        </mxCell>
        <mxCell id="ZaUChQeZ-4_Qdy9LT5QD-31" value="Entreprise" style="swimlane;fontStyle=0;childLayout=stackLayout;horizontal=1;startSize=26;fillColor=none;horizontalStack=0;resizeParent=1;resizeParentMax=0;resizeLast=0;collapsible=1;marginBottom=0;html=1;" parent="1" vertex="1">
          <mxGeometry x="180" y="30" width="140" height="78" as="geometry" />
        </mxCell>
        <mxCell id="ZaUChQeZ-4_Qdy9LT5QD-32" value="#Nb_Personne" style="text;strokeColor=none;fillColor=none;align=left;verticalAlign=top;spacingLeft=4;spacingRight=4;overflow=hidden;rotatable=0;points=[[0,0.5],[1,0.5]];portConstraint=eastwest;whiteSpace=wrap;html=1;" parent="ZaUChQeZ-4_Qdy9LT5QD-31" vertex="1">
          <mxGeometry y="26" width="140" height="26" as="geometry" />
        </mxCell>
        <mxCell id="ZaUChQeZ-4_Qdy9LT5QD-33" value="#Marche" style="text;strokeColor=none;fillColor=none;align=left;verticalAlign=top;spacingLeft=4;spacingRight=4;overflow=hidden;rotatable=0;points=[[0,0.5],[1,0.5]];portConstraint=eastwest;whiteSpace=wrap;html=1;" parent="ZaUChQeZ-4_Qdy9LT5QD-31" vertex="1">
          <mxGeometry y="52" width="140" height="26" as="geometry" />
        </mxCell>
        <mxCell id="ZaUChQeZ-4_Qdy9LT5QD-42" value="Ecole" style="swimlane;fontStyle=0;childLayout=stackLayout;horizontal=1;startSize=20;fillColor=none;horizontalStack=0;resizeParent=1;resizeParentMax=0;resizeLast=0;collapsible=1;marginBottom=0;html=1;" parent="1" vertex="1">
          <mxGeometry x="-20" y="140" width="140" height="46" as="geometry" />
        </mxCell>
        <mxCell id="ZaUChQeZ-4_Qdy9LT5QD-43" value="#Nom" style="text;strokeColor=none;fillColor=none;align=left;verticalAlign=top;spacingLeft=4;spacingRight=4;overflow=hidden;rotatable=0;points=[[0,0.5],[1,0.5]];portConstraint=eastwest;whiteSpace=wrap;html=1;" parent="ZaUChQeZ-4_Qdy9LT5QD-42" vertex="1">
          <mxGeometry y="20" width="140" height="26" as="geometry" />
        </mxCell>
        <mxCell id="ZaUChQeZ-4_Qdy9LT5QD-47" value="1" style="text;html=1;strokeColor=none;fillColor=none;align=center;verticalAlign=middle;whiteSpace=wrap;rounded=0;fontSize=20;" parent="1" vertex="1">
          <mxGeometry x="560" y="320" width="60" height="30" as="geometry" />
        </mxCell>
        <mxCell id="ZaUChQeZ-4_Qdy9LT5QD-54" style="edgeStyle=orthogonalEdgeStyle;rounded=0;orthogonalLoop=1;jettySize=auto;html=1;exitX=1;exitY=0.5;exitDx=0;exitDy=0;entryX=0.5;entryY=0;entryDx=0;entryDy=0;startArrow=diamond;startFill=1;" parent="1" source="ZaUChQeZ-4_Qdy9LT5QD-43" target="ZaUChQeZ-4_Qdy9LT5QD-23" edge="1">
          <mxGeometry relative="1" as="geometry" />
        </mxCell>
        <mxCell id="UX67NW6vq9PvhdEnfFPJ-2" value="&lt;font style=&quot;font-size: 18px;&quot;&gt;*&lt;/font&gt;" style="text;html=1;strokeColor=none;fillColor=none;align=center;verticalAlign=middle;whiteSpace=wrap;rounded=0;" parent="1" vertex="1">
          <mxGeometry x="380" y="120" width="60" height="30" as="geometry" />
        </mxCell>
        <mxCell id="UX67NW6vq9PvhdEnfFPJ-3" value="&lt;font style=&quot;font-size: 18px;&quot;&gt;1&lt;/font&gt;" style="text;html=1;strokeColor=none;fillColor=none;align=center;verticalAlign=middle;whiteSpace=wrap;rounded=0;" parent="1" vertex="1">
          <mxGeometry x="330" y="30" width="60" height="30" as="geometry" />
        </mxCell>
        <mxCell id="oFVjVb3KZr8KS1uts6sC-1" value="CPU" style="rounded=0;whiteSpace=wrap;html=1;" vertex="1" parent="1">
          <mxGeometry x="-580" y="260" width="120" height="60" as="geometry" />
        </mxCell>
        <mxCell id="oFVjVb3KZr8KS1uts6sC-2" value="Horloge" style="rounded=0;whiteSpace=wrap;html=1;" vertex="1" parent="1">
          <mxGeometry x="-800" y="260" width="120" height="60" as="geometry" />
        </mxCell>
        <mxCell id="oFVjVb3KZr8KS1uts6sC-3" value="Mémoire" style="rounded=0;whiteSpace=wrap;html=1;" vertex="1" parent="1">
          <mxGeometry x="-580" y="410" width="120" height="60" as="geometry" />
        </mxCell>
        <mxCell id="oFVjVb3KZr8KS1uts6sC-4" value="INTERFACE D&#39;ENTREE" style="rounded=0;whiteSpace=wrap;html=1;" vertex="1" parent="1">
          <mxGeometry x="-360" y="240" width="120" height="60" as="geometry" />
        </mxCell>
        <mxCell id="oFVjVb3KZr8KS1uts6sC-5" value="INTERFACE DE SORTIE" style="rounded=0;whiteSpace=wrap;html=1;" vertex="1" parent="1">
          <mxGeometry x="-360" y="400" width="120" height="60" as="geometry" />
        </mxCell>
        <mxCell id="oFVjVb3KZr8KS1uts6sC-6" value="" style="endArrow=classic;startArrow=classic;html=1;rounded=0;entryX=0.5;entryY=1;entryDx=0;entryDy=0;exitX=0.5;exitY=0;exitDx=0;exitDy=0;" edge="1" parent="1" source="oFVjVb3KZr8KS1uts6sC-5" target="oFVjVb3KZr8KS1uts6sC-4">
          <mxGeometry width="50" height="50" relative="1" as="geometry">
            <mxPoint x="-300" y="360" as="sourcePoint" />
            <mxPoint x="-400" y="380" as="targetPoint" />
          </mxGeometry>
        </mxCell>
        <mxCell id="oFVjVb3KZr8KS1uts6sC-7" value="" style="endArrow=classic;startArrow=classic;html=1;rounded=0;" edge="1" parent="1">
          <mxGeometry width="50" height="50" relative="1" as="geometry">
            <mxPoint x="-520" y="360" as="sourcePoint" />
            <mxPoint x="-300" y="360" as="targetPoint" />
          </mxGeometry>
        </mxCell>
        <mxCell id="oFVjVb3KZr8KS1uts6sC-8" value="" style="endArrow=classic;startArrow=classic;html=1;rounded=0;exitX=0.5;exitY=0;exitDx=0;exitDy=0;entryX=0.5;entryY=1;entryDx=0;entryDy=0;" edge="1" parent="1" source="oFVjVb3KZr8KS1uts6sC-3" target="oFVjVb3KZr8KS1uts6sC-1">
          <mxGeometry width="50" height="50" relative="1" as="geometry">
            <mxPoint x="-450" y="430" as="sourcePoint" />
            <mxPoint x="-400" y="380" as="targetPoint" />
          </mxGeometry>
        </mxCell>
        <mxCell id="oFVjVb3KZr8KS1uts6sC-9" value="BUS" style="text;html=1;strokeColor=none;fillColor=none;align=center;verticalAlign=middle;whiteSpace=wrap;rounded=0;" vertex="1" parent="1">
          <mxGeometry x="-440" y="331" width="60" height="30" as="geometry" />
        </mxCell>
        <mxCell id="oFVjVb3KZr8KS1uts6sC-10" value="" style="endArrow=classic;html=1;rounded=0;exitX=1;exitY=0.5;exitDx=0;exitDy=0;" edge="1" parent="1" source="oFVjVb3KZr8KS1uts6sC-2">
          <mxGeometry width="50" height="50" relative="1" as="geometry">
            <mxPoint x="-450" y="430" as="sourcePoint" />
            <mxPoint x="-580" y="290" as="targetPoint" />
          </mxGeometry>
        </mxCell>
      </root>
    </mxGraphModel>
  </diagram>
</mxfile>
